<?xml version="1.0" encoding="UTF-8" standalone="no"?>
<svg width="19px" height="20px" viewBox="0 0 19 20" version="1.1" xmlns="http://www.w3.org/2000/svg" xmlns:xlink="http://www.w3.org/1999/xlink" xmlns:sketch="http://www.bohemiancoding.com/sketch/ns">
    <!-- Generator: Sketch 3.3 (11970) - http://www.bohemiancoding.com/sketch -->
    <title>qq_s</title>
    <desc>Created with Sketch.</desc>
    <defs></defs>
    <g id="Symbols" stroke="none" stroke-width="1" fill="none" fill-rule="evenodd" sketch:type="MSPage">
        <g id="Forms" sketch:type="MSArtboardGroup" transform="translate(-366.000000, -663.000000)" fill="#FFFFFF">
            <g id="Group-Copy-3" sketch:type="MSLayerGroup" transform="translate(265.000000, 657.000000)">
                <path d="M103.655779,13.9021126 C103.552891,14.1740312 103.703741,14.3461805 103.655779,15.3814478 C103.642878,15.6599084 102.442121,16.9203573 101.965586,18.2294817 C101.492848,19.5281737 101.427797,20.8848608 102.157653,21.4180708 C102.887509,21.9512808 103.566982,19.6432023 103.655779,19.9790406 C103.694519,20.1255602 103.74283,20.2779912 103.80098,20.4345948 C104.034549,21.0636188 104.426865,21.759963 104.995366,22.4109582 C105.110852,22.5432025 104.291902,22.7863873 103.80098,23.6214939 C103.310057,24.4566004 103.941631,25.9749757 106.383135,25.9749753 C109.533039,25.9749753 110.237102,24.8675213 110.301308,24.8723738 C110.535846,24.8900998 110.552055,24.8723741 110.800683,24.8723741 C111.104855,24.8723742 110.979004,24.8968271 111.261645,24.8723738 C111.414287,24.8591677 112.945166,26.1977783 115.064578,25.9749753 C118.675444,25.5953833 118.123278,24.3852353 117.839844,23.6214939 C117.544024,22.824375 116.498008,22.4508594 116.544184,22.3998287 C117.409173,21.4438797 117.546236,20.8569874 117.839844,19.9790409 C117.960541,19.6181325 118.798408,21.9646495 119.443713,21.4180708 C119.712608,21.1903147 120.250396,20.241329 119.712608,18.2294817 C119.174819,16.2176345 118.134992,15.7586972 118.157585,15.3814477 C118.204608,14.5962754 118.177306,14.0449023 118.137655,13.9021126 C117.945588,13.2104464 117.544023,13.3631687 117.544023,13.2104464 C117.544023,9.22822663 114.549416,6 110.855381,6 C107.161346,6 104.166739,9.22822663 104.166739,13.2104464 C104.166739,13.5265225 103.886259,13.2929829 103.655779,13.9021126 Z" id="qq_s" sketch:type="MSShapeGroup"></path>
            </g>
        </g>
    </g>
</svg>