<?xml version="1.0" encoding="UTF-8" standalone="no"?>
<svg width="26px" height="20px" viewBox="0 0 26 20" version="1.1" xmlns="http://www.w3.org/2000/svg" xmlns:xlink="http://www.w3.org/1999/xlink" xmlns:sketch="http://www.bohemiancoding.com/sketch/ns">
    <!-- Generator: Sketch 3.3 (11970) - http://www.bohemiancoding.com/sketch -->
    <title>sina_weibo_s</title>
    <desc>Created with Sketch.</desc>
    <defs></defs>
    <g id="Symbols" stroke="none" stroke-width="1" fill="none" fill-rule="evenodd" sketch:type="MSPage">
        <g id="Forms" sketch:type="MSArtboardGroup" transform="translate(-268.000000, -663.000000)" fill="#FFFFFF">
            <g id="Group-Copy-3" sketch:type="MSLayerGroup" transform="translate(265.000000, 657.000000)">
                <path d="M14.5934066,26 C20.6139176,26 25.4475337,22.8020341 25.4475339,18.8571429 C25.4475339,15.5245007 21.3383346,15.5245007 21.3383346,15.3093763 C21.3383346,15.0942519 23.3846154,13.1581364 21.3383346,11.9534417 C19.2920539,10.748747 15.5491501,12.5803262 15.6617083,12.3836898 C17.2714978,9.57142857 14.9705816,8.68355642 13.7977409,8.68355642 C11.0017901,8.68355642 3.69230769,14.9122516 3.69230769,18.8571429 C3.69230769,22.8020341 8.57289562,26 14.5934066,26 Z M14.8879191,23.8119589 C18.7343189,23.2713826 21.5631457,20.7747108 21.2062809,18.2354859 C20.8494161,15.696261 17.4419973,14.0760363 13.5955974,14.6166125 C9.74919756,15.1571888 6.92037077,17.6538606 7.27723556,20.1930855 C7.63410035,22.7323105 11.0415192,24.3525351 14.8879191,23.8119589 Z M14.1775594,23.1202647 C16.4652615,22.6755805 18.01471,20.7454876 17.6383496,18.8092814 C17.2619893,16.8730751 15.1023401,15.6639578 12.814638,16.108642 C10.5269358,16.5533263 8.97748731,18.4834192 9.35384768,20.4196254 C9.73020805,22.3558317 11.8898572,23.564949 14.1775594,23.1202647 Z M14.2417582,19.5714286 C14.6301783,19.5714286 14.9450549,19.251632 14.9450549,18.8571429 C14.9450549,18.4626537 14.6301783,18.1428571 14.2417582,18.1428571 C13.8533382,18.1428571 13.5384615,18.4626537 13.5384615,18.8571429 C13.5384615,19.251632 13.8533382,19.5714286 14.2417582,19.5714286 Z M12.6270363,21.2007891 C13.3310926,20.8724823 13.699115,20.1715859 13.4490376,19.635293 C13.1989601,19.0990002 12.425482,18.9303942 11.7214257,19.258701 C11.0173695,19.5870078 10.649347,20.2879043 10.8994245,20.8241971 C11.1495019,21.36049 11.92298,21.5290959 12.6270363,21.2007891 Z M24.0071961,10.2324494 C22.7363097,9.07077957 21.5583929,9.46507396 21.5583929,9.46507396 C21.0133076,9.52381199 20.5714286,10.0120005 20.5714286,10.5792043 L20.5714286,9.78399616 C20.5714286,10.3405753 21.0146478,10.7671516 21.572107,10.783157 C21.572107,10.783157 22.4821324,10.5766481 23.1599384,11.3941193 C23.8377444,12.2115905 23.408022,13.0517039 23.408022,13.0517039 C23.2710093,13.5857238 23.6128542,14.0186324 24.1571477,14.0186324 L23.6454302,14.0186324 C24.1961737,14.0186324 24.7239314,13.5779436 24.7844994,13.027226 C24.7844994,13.027226 25.2780825,11.3941193 24.0071961,10.2324494 Z M26.3795179,7.90910986 C24.0495594,5.67181963 21.3679969,6.01805215 21.3679969,6.01805215 C20.5396443,6.00808222 19.8681319,6.66771398 19.8681319,7.50423676 L19.8681319,6.4048731 C19.8681319,7.23564012 20.5424149,7.8821368 21.3745688,7.9066774 C21.3745688,7.9066774 23.9224705,7.53361409 25.3204456,9.57142873 C26.7184207,11.6092434 26.1730633,13.4276379 26.1730633,13.4276379 C26.0765174,14.2530358 26.6711864,14.922153 27.5028272,14.922153 L26.3576431,14.922153 C27.1885973,14.922153 27.9479615,14.2506858 28.0026277,13.4403165 C28.0026277,13.4403165 28.7094767,10.1463999 26.3795179,7.90910986 Z" id="sina_weibo_s" sketch:type="MSShapeGroup"></path>
            </g>
        </g>
    </g>
</svg>