<?xml version="1.0" encoding="UTF-8" standalone="no"?>
<svg width="25px" height="21px" viewBox="0 0 25 21" version="1.1" xmlns="http://www.w3.org/2000/svg" xmlns:xlink="http://www.w3.org/1999/xlink" xmlns:sketch="http://www.bohemiancoding.com/sketch/ns">
    <!-- Generator: Sketch 3.3 (11970) - http://www.bohemiancoding.com/sketch -->
    <title>wechat_s</title>
    <desc>Created with Sketch.</desc>
    <defs></defs>
    <g id="Symbols" stroke="none" stroke-width="1" fill="none" fill-rule="evenodd" sketch:type="MSPage">
        <g id="Forms" sketch:type="MSArtboardGroup" transform="translate(-316.000000, -663.000000)" fill="#FFFFFF">
            <g id="Group-Copy-3" sketch:type="MSLayerGroup" transform="translate(265.000000, 657.000000)">
                <path d="M61.6440909,21.1642231 C61.1294546,21.2462958 60.5991191,21.2891712 60.0573014,21.2891712 C58.9759898,21.2891712 57.9404098,21.1184044 56.9840822,20.8061059 C56.5031285,20.6490456 54.7457779,22.5064352 54.3091781,22.2814996 C54.0490632,22.1474888 55.0940188,19.9518449 54.8520623,19.7958483 C52.6924458,18.4034787 51.2920575,16.1666625 51.2920575,13.6445856 C51.2920575,9.42259735 55.2163907,6 60.0573014,6 C64.6218641,6 68.3715096,9.0429863 68.7847389,12.9298398 C72.6243534,13.0814444 75.6823014,15.7629044 75.6823014,19.04857 C75.6823014,21.0890149 74.5029774,22.8964427 72.6894976,24.0096614 C72.3479374,24.2193308 73.4290333,25.987194 73.0461235,26.1445294 C72.8101201,26.2415018 71.1218023,24.7451286 70.8723276,24.8203285 C70.112526,25.0493577 69.2942019,25.174063 68.4414478,25.174063 C65.3214398,25.174063 62.6623255,23.5047082 61.6440909,21.1642231 L61.6440909,21.1642231 Z M61.2433339,19.7179699 C60.8574214,19.7718075 60.4612238,19.7998102 60.0573014,19.7998102 C59.0464664,19.7998102 58.0840095,19.6244363 57.2100592,19.3076642 C57.1228818,19.2760659 56.8120141,19.181404 56.6438437,19.3076646 C56.2658042,19.5914928 55.7588751,20.1806354 55.7588751,20.1806354 C55.7588751,20.1806354 55.9444596,19.7516558 56.0066662,19.1252152 C56.0350897,18.8389806 55.6022305,18.6382795 55.5158436,18.5793086 C53.869601,17.4555221 52.8164478,15.5989759 52.8164478,13.6691359 C52.8164478,10.2832578 56.0582882,7.53846154 60.0573014,7.53846154 C63.7911789,7.53846154 66.8649567,9.93136146 67.2561284,13.0047487 C63.8209833,13.483273 61.2005941,16.0070462 61.2005941,19.04857 C61.2005941,19.2747766 61.2150883,19.4981193 61.2433339,19.7179699 L61.2433339,19.7179699 Z M57.008521,12.1538462 C57.6399441,12.1538462 58.1518136,11.6372517 58.1518136,11 C58.1518136,10.3627483 57.6399441,9.84615385 57.008521,9.84615385 C56.3770978,9.84615385 55.8652283,10.3627483 55.8652283,11 C55.8652283,11.6372517 56.3770978,12.1538462 57.008521,12.1538462 Z M63.1060819,12.1538462 C63.7375051,12.1538462 64.2493746,11.6372517 64.2493746,11 C64.2493746,10.3627483 63.7375051,9.84615385 63.1060819,9.84615385 C62.4746588,9.84615385 61.9627892,10.3627483 61.9627892,11 C61.9627892,11.6372517 62.4746588,12.1538462 63.1060819,12.1538462 Z M65.7737649,17.5384615 C66.1947136,17.5384615 66.53596,17.1940652 66.53596,16.7692308 C66.53596,16.3443963 66.1947136,16 65.7737649,16 C65.3528161,16 65.0115697,16.3443963 65.0115697,16.7692308 C65.0115697,17.1940652 65.3528161,17.5384615 65.7737649,17.5384615 Z M70.3469356,17.5384615 C70.7678843,17.5384615 71.1091307,17.1940652 71.1091307,16.7692308 C71.1091307,16.3443963 70.7678843,16 70.3469356,16 C69.9259868,16 69.5847405,16.3443963 69.5847405,16.7692308 C69.5847405,17.1940652 69.9259868,17.5384615 70.3469356,17.5384615 Z" id="wechat_s" sketch:type="MSShapeGroup"></path>
            </g>
        </g>
    </g>
</svg>